<mxfile host="Electron" modified="2023-05-11T10:27:14.217Z" agent="Mozilla/5.0 (Windows NT 10.0; Win64; x64) AppleWebKit/537.36 (KHTML, like Gecko) draw.io/21.2.8 Chrome/112.0.5615.165 Electron/24.2.0 Safari/537.36" etag="2Pip87QWNas010SssD4I" version="21.2.8" type="device">
  <diagram name="페이지-1" id="loX1GWIg0YwVXHlp89LK">
    <mxGraphModel dx="1663" dy="4276" grid="1" gridSize="10" guides="1" tooltips="1" connect="1" arrows="1" fold="1" page="1" pageScale="1" pageWidth="827" pageHeight="1169" math="0" shadow="0">
      <root>
        <mxCell id="0" />
        <mxCell id="1" parent="0" />
        <mxCell id="quF1uSy7DQYUhARwBzJB-1" value="&lt;font style=&quot;font-size: 18px;&quot;&gt;:GeneralMember&lt;/font&gt;" style="shape=umlActor;verticalLabelPosition=bottom;verticalAlign=top;html=1;outlineConnect=0;" parent="1" vertex="1">
          <mxGeometry x="70" y="1360" width="110" height="220" as="geometry" />
        </mxCell>
        <mxCell id="quF1uSy7DQYUhARwBzJB-2" value="&lt;font style=&quot;font-size: 18px;&quot;&gt;:ApplyDeleteUI&lt;/font&gt;" style="rounded=0;whiteSpace=wrap;html=1;" parent="1" vertex="1">
          <mxGeometry x="530" y="1427.5" width="190" height="85" as="geometry" />
        </mxCell>
        <mxCell id="quF1uSy7DQYUhARwBzJB-3" value="&lt;font style=&quot;font-size: 18px;&quot;&gt;:ApplyDelete&lt;/font&gt;" style="rounded=0;whiteSpace=wrap;html=1;" parent="1" vertex="1">
          <mxGeometry x="1010" y="1427.5" width="250" height="85" as="geometry" />
        </mxCell>
        <mxCell id="quF1uSy7DQYUhARwBzJB-4" value="" style="endArrow=none;html=1;rounded=0;entryX=0;entryY=0.5;entryDx=0;entryDy=0;" parent="1" target="quF1uSy7DQYUhARwBzJB-2" edge="1">
          <mxGeometry width="50" height="50" relative="1" as="geometry">
            <mxPoint x="220" y="1470" as="sourcePoint" />
            <mxPoint x="910" y="1617.5" as="targetPoint" />
          </mxGeometry>
        </mxCell>
        <mxCell id="quF1uSy7DQYUhARwBzJB-5" value="" style="endArrow=none;html=1;rounded=0;entryX=1;entryY=0.5;entryDx=0;entryDy=0;exitX=0;exitY=0.5;exitDx=0;exitDy=0;" parent="1" source="quF1uSy7DQYUhARwBzJB-3" target="quF1uSy7DQYUhARwBzJB-2" edge="1">
          <mxGeometry width="50" height="50" relative="1" as="geometry">
            <mxPoint x="860" y="1667.5" as="sourcePoint" />
            <mxPoint x="910" y="1617.5" as="targetPoint" />
          </mxGeometry>
        </mxCell>
        <mxCell id="quF1uSy7DQYUhARwBzJB-6" value="&lt;font style=&quot;font-size: 18px;&quot;&gt;2: searchMyApplys()&lt;/font&gt;" style="text;html=1;align=center;verticalAlign=middle;resizable=0;points=[];autosize=1;strokeColor=none;fillColor=none;" parent="1" vertex="1">
          <mxGeometry x="288" y="1360" width="190" height="40" as="geometry" />
        </mxCell>
        <mxCell id="quF1uSy7DQYUhARwBzJB-7" value="" style="endArrow=classic;html=1;rounded=0;" parent="1" edge="1">
          <mxGeometry width="50" height="50" relative="1" as="geometry">
            <mxPoint x="230" y="1447.5" as="sourcePoint" />
            <mxPoint x="510" y="1447.5" as="targetPoint" />
          </mxGeometry>
        </mxCell>
        <mxCell id="quF1uSy7DQYUhARwBzJB-8" value="&lt;font style=&quot;font-size: 18px;&quot;&gt;2.1: showMyApplys()&lt;/font&gt;" style="text;html=1;align=center;verticalAlign=middle;resizable=0;points=[];autosize=1;strokeColor=none;fillColor=none;" parent="1" vertex="1">
          <mxGeometry x="770" y="1360" width="190" height="40" as="geometry" />
        </mxCell>
        <mxCell id="quF1uSy7DQYUhARwBzJB-9" value="&lt;font style=&quot;font-size: 18px;&quot;&gt;2.1.1 *[applydate&amp;gt;limit]: getMyApply()&lt;/font&gt;" style="text;html=1;align=center;verticalAlign=middle;resizable=0;points=[];autosize=1;strokeColor=none;fillColor=none;" parent="1" vertex="1">
          <mxGeometry x="720" y="1610" width="320" height="40" as="geometry" />
        </mxCell>
        <mxCell id="quF1uSy7DQYUhARwBzJB-10" value="&lt;font style=&quot;font-size: 18px;&quot;&gt;3: eraseMyApply()&lt;/font&gt;" style="text;html=1;align=center;verticalAlign=middle;resizable=0;points=[];autosize=1;strokeColor=none;fillColor=none;" parent="1" vertex="1">
          <mxGeometry x="293" y="1397.5" width="170" height="40" as="geometry" />
        </mxCell>
        <mxCell id="quF1uSy7DQYUhARwBzJB-11" value="&lt;font style=&quot;font-size: 18px;&quot;&gt;&amp;nbsp; &amp;nbsp; &amp;nbsp;3.1: eraseMyApply()&lt;/font&gt;" style="text;html=1;align=center;verticalAlign=middle;resizable=0;points=[];autosize=1;strokeColor=none;fillColor=none;" parent="1" vertex="1">
          <mxGeometry x="745" y="1397.5" width="210" height="40" as="geometry" />
        </mxCell>
        <mxCell id="quF1uSy7DQYUhARwBzJB-12" value="" style="endArrow=classic;html=1;rounded=0;" parent="1" edge="1">
          <mxGeometry width="50" height="50" relative="1" as="geometry">
            <mxPoint x="730" y="1447.5" as="sourcePoint" />
            <mxPoint x="1000" y="1447.5" as="targetPoint" />
          </mxGeometry>
        </mxCell>
        <mxCell id="quF1uSy7DQYUhARwBzJB-13" value="&lt;font style=&quot;font-size: 18px;&quot;&gt;3.1.1: deleteMyApply()&lt;/font&gt;" style="text;html=1;align=center;verticalAlign=middle;resizable=0;points=[];autosize=1;strokeColor=none;fillColor=none;" parent="1" vertex="1">
          <mxGeometry x="723" y="1650" width="200" height="40" as="geometry" />
        </mxCell>
        <mxCell id="quF1uSy7DQYUhARwBzJB-14" value="&lt;font style=&quot;font-size: 18px;&quot;&gt;deleteApply:MyApply&lt;/font&gt;" style="rounded=0;whiteSpace=wrap;html=1;" parent="1" vertex="1">
          <mxGeometry x="1480" y="1777.5" width="220" height="60" as="geometry" />
        </mxCell>
        <mxCell id="quF1uSy7DQYUhARwBzJB-15" value="" style="endArrow=none;html=1;rounded=0;exitX=1;exitY=0.5;exitDx=0;exitDy=0;entryX=0;entryY=0.5;entryDx=0;entryDy=0;" parent="1" target="quF1uSy7DQYUhARwBzJB-14" edge="1">
          <mxGeometry width="50" height="50" relative="1" as="geometry">
            <mxPoint x="1245" y="1807.5" as="sourcePoint" />
            <mxPoint x="1390" y="1737.5" as="targetPoint" />
          </mxGeometry>
        </mxCell>
        <mxCell id="quF1uSy7DQYUhARwBzJB-16" value="" style="endArrow=classic;html=1;rounded=0;" parent="1" edge="1">
          <mxGeometry width="50" height="50" relative="1" as="geometry">
            <mxPoint x="1260" y="1791.5" as="sourcePoint" />
            <mxPoint x="1470" y="1791.5" as="targetPoint" />
          </mxGeometry>
        </mxCell>
        <mxCell id="quF1uSy7DQYUhARwBzJB-17" value="&lt;font style=&quot;font-size: 18px;&quot;&gt;3.1.1.1: ~MyApply()&lt;/font&gt;" style="text;html=1;align=center;verticalAlign=middle;resizable=0;points=[];autosize=1;strokeColor=none;fillColor=none;" parent="1" vertex="1">
          <mxGeometry x="1280" y="1742.5" width="180" height="40" as="geometry" />
        </mxCell>
        <mxCell id="quF1uSy7DQYUhARwBzJB-18" value="&lt;font style=&quot;font-size: 18px;&quot;&gt;:MyApply&lt;/font&gt;" style="rounded=0;whiteSpace=wrap;html=1;" parent="1" vertex="1">
          <mxGeometry x="1025" y="1777.5" width="220" height="60" as="geometry" />
        </mxCell>
        <mxCell id="quF1uSy7DQYUhARwBzJB-19" value="" style="endArrow=none;html=1;rounded=0;entryX=0.5;entryY=0;entryDx=0;entryDy=0;exitX=0.5;exitY=1;exitDx=0;exitDy=0;" parent="1" source="quF1uSy7DQYUhARwBzJB-3" target="quF1uSy7DQYUhARwBzJB-18" edge="1">
          <mxGeometry width="50" height="50" relative="1" as="geometry">
            <mxPoint x="1260" y="1467.5" as="sourcePoint" />
            <mxPoint x="1060" y="1737.5" as="targetPoint" />
          </mxGeometry>
        </mxCell>
        <mxCell id="quF1uSy7DQYUhARwBzJB-20" value="" style="endArrow=classic;html=1;rounded=0;" parent="1" edge="1">
          <mxGeometry width="50" height="50" relative="1" as="geometry">
            <mxPoint x="1110" y="1527.5" as="sourcePoint" />
            <mxPoint x="1110" y="1747.5" as="targetPoint" />
          </mxGeometry>
        </mxCell>
        <mxCell id="quF1uSy7DQYUhARwBzJB-21" value="&lt;font style=&quot;font-size: 24px;&quot;&gt;sd 지원 정보 삭제&lt;/font&gt;" style="shape=umlFrame;whiteSpace=wrap;html=1;pointerEvents=0;width=220;height=60;" parent="1" vertex="1">
          <mxGeometry x="40" y="1260" width="1750" height="610" as="geometry" />
        </mxCell>
        <mxCell id="quF1uSy7DQYUhARwBzJB-22" value="&lt;font style=&quot;font-size: 24px;&quot;&gt;sd 지원 정보 조회 및 취소&lt;/font&gt;" style="shape=umlFrame;whiteSpace=wrap;html=1;pointerEvents=0;width=320;height=70;" parent="1" vertex="1">
          <mxGeometry x="40" y="1950" width="1750" height="610" as="geometry" />
        </mxCell>
        <mxCell id="quF1uSy7DQYUhARwBzJB-23" value="&lt;font style=&quot;font-size: 18px;&quot;&gt;:ApplyInquiryandCancelUI&lt;/font&gt;" style="rounded=0;whiteSpace=wrap;html=1;" parent="1" vertex="1">
          <mxGeometry x="535" y="2107.5" width="250" height="85" as="geometry" />
        </mxCell>
        <mxCell id="quF1uSy7DQYUhARwBzJB-24" value="&lt;font style=&quot;font-size: 18px;&quot;&gt;:ApplyInquiryAndCancel&lt;/font&gt;" style="rounded=0;whiteSpace=wrap;html=1;" parent="1" vertex="1">
          <mxGeometry x="1110" y="2107.5" width="250" height="85" as="geometry" />
        </mxCell>
        <mxCell id="quF1uSy7DQYUhARwBzJB-25" value="&lt;font style=&quot;font-size: 18px;&quot;&gt;:GeneralMember&lt;/font&gt;" style="shape=umlActor;verticalLabelPosition=bottom;verticalAlign=top;html=1;outlineConnect=0;" parent="1" vertex="1">
          <mxGeometry x="70" y="2040" width="110" height="220" as="geometry" />
        </mxCell>
        <mxCell id="quF1uSy7DQYUhARwBzJB-26" value="" style="endArrow=none;html=1;rounded=0;entryX=0;entryY=0.5;entryDx=0;entryDy=0;" parent="1" source="quF1uSy7DQYUhARwBzJB-25" target="quF1uSy7DQYUhARwBzJB-23" edge="1">
          <mxGeometry width="50" height="50" relative="1" as="geometry">
            <mxPoint x="900" y="2347.5" as="sourcePoint" />
            <mxPoint x="950" y="2297.5" as="targetPoint" />
          </mxGeometry>
        </mxCell>
        <mxCell id="quF1uSy7DQYUhARwBzJB-27" value="" style="endArrow=none;html=1;rounded=0;entryX=1;entryY=0.5;entryDx=0;entryDy=0;exitX=0;exitY=0.5;exitDx=0;exitDy=0;" parent="1" source="quF1uSy7DQYUhARwBzJB-24" target="quF1uSy7DQYUhARwBzJB-23" edge="1">
          <mxGeometry width="50" height="50" relative="1" as="geometry">
            <mxPoint x="900" y="2347.5" as="sourcePoint" />
            <mxPoint x="950" y="2297.5" as="targetPoint" />
          </mxGeometry>
        </mxCell>
        <mxCell id="quF1uSy7DQYUhARwBzJB-28" value="&lt;font style=&quot;font-size: 18px;&quot;&gt;2: searchMyApplys()&lt;/font&gt;" style="text;html=1;align=center;verticalAlign=middle;resizable=0;points=[];autosize=1;strokeColor=none;fillColor=none;" parent="1" vertex="1">
          <mxGeometry x="262" y="2040" width="190" height="40" as="geometry" />
        </mxCell>
        <mxCell id="quF1uSy7DQYUhARwBzJB-29" value="" style="endArrow=classic;html=1;rounded=0;" parent="1" edge="1">
          <mxGeometry width="50" height="50" relative="1" as="geometry">
            <mxPoint x="222" y="2127.5" as="sourcePoint" />
            <mxPoint x="502" y="2127.5" as="targetPoint" />
          </mxGeometry>
        </mxCell>
        <mxCell id="quF1uSy7DQYUhARwBzJB-30" value="&lt;font style=&quot;font-size: 18px;&quot;&gt;2.1: showMyApplys()&lt;/font&gt;" style="text;html=1;align=center;verticalAlign=middle;resizable=0;points=[];autosize=1;strokeColor=none;fillColor=none;" parent="1" vertex="1">
          <mxGeometry x="853" y="2040" width="190" height="40" as="geometry" />
        </mxCell>
        <mxCell id="quF1uSy7DQYUhARwBzJB-31" value="&lt;font style=&quot;font-size: 18px;&quot;&gt;:MyApply&lt;/font&gt;" style="rounded=0;whiteSpace=wrap;html=1;" parent="1" vertex="1">
          <mxGeometry x="1125" y="2467.5" width="220" height="60" as="geometry" />
        </mxCell>
        <mxCell id="quF1uSy7DQYUhARwBzJB-32" value="" style="endArrow=none;html=1;rounded=0;entryX=0.5;entryY=1;entryDx=0;entryDy=0;exitX=0.5;exitY=0;exitDx=0;exitDy=0;" parent="1" source="quF1uSy7DQYUhARwBzJB-31" target="quF1uSy7DQYUhARwBzJB-24" edge="1">
          <mxGeometry width="50" height="50" relative="1" as="geometry">
            <mxPoint x="920" y="2347.5" as="sourcePoint" />
            <mxPoint x="970" y="2297.5" as="targetPoint" />
          </mxGeometry>
        </mxCell>
        <mxCell id="quF1uSy7DQYUhARwBzJB-33" value="" style="endArrow=classic;html=1;rounded=0;" parent="1" edge="1">
          <mxGeometry width="50" height="50" relative="1" as="geometry">
            <mxPoint x="1210" y="2217.5" as="sourcePoint" />
            <mxPoint x="1210" y="2437.5" as="targetPoint" />
          </mxGeometry>
        </mxCell>
        <mxCell id="quF1uSy7DQYUhARwBzJB-34" value="&lt;font style=&quot;font-size: 18px;&quot;&gt;2.1.1 *[applydate&amp;lt;=limit]: getMyApply()&lt;/font&gt;" style="text;html=1;align=center;verticalAlign=middle;resizable=0;points=[];autosize=1;strokeColor=none;fillColor=none;" parent="1" vertex="1">
          <mxGeometry x="866" y="2298" width="330" height="40" as="geometry" />
        </mxCell>
        <mxCell id="quF1uSy7DQYUhARwBzJB-35" value="&lt;font style=&quot;font-size: 18px;&quot;&gt;3: cancelMyApply()&lt;/font&gt;" style="text;html=1;align=center;verticalAlign=middle;resizable=0;points=[];autosize=1;strokeColor=none;fillColor=none;" parent="1" vertex="1">
          <mxGeometry x="262" y="2080" width="180" height="40" as="geometry" />
        </mxCell>
        <mxCell id="quF1uSy7DQYUhARwBzJB-36" value="&lt;font style=&quot;font-size: 18px;&quot;&gt;&amp;nbsp; &amp;nbsp; &amp;nbsp;3.1: cancelMyApply()&lt;/font&gt;" style="text;html=1;align=center;verticalAlign=middle;resizable=0;points=[];autosize=1;strokeColor=none;fillColor=none;" parent="1" vertex="1">
          <mxGeometry x="827" y="2080" width="220" height="40" as="geometry" />
        </mxCell>
        <mxCell id="quF1uSy7DQYUhARwBzJB-37" value="" style="endArrow=classic;html=1;rounded=0;" parent="1" edge="1">
          <mxGeometry width="50" height="50" relative="1" as="geometry">
            <mxPoint x="830" y="2127.5" as="sourcePoint" />
            <mxPoint x="1100" y="2127.5" as="targetPoint" />
          </mxGeometry>
        </mxCell>
        <mxCell id="quF1uSy7DQYUhARwBzJB-38" value="&lt;font style=&quot;font-size: 18px;&quot;&gt;3.1.1: deleteMyApply()&lt;/font&gt;" style="text;html=1;align=center;verticalAlign=middle;resizable=0;points=[];autosize=1;strokeColor=none;fillColor=none;" parent="1" vertex="1">
          <mxGeometry x="866" y="2331.5" width="200" height="40" as="geometry" />
        </mxCell>
        <mxCell id="quF1uSy7DQYUhARwBzJB-39" value="&lt;font style=&quot;font-size: 18px;&quot;&gt;deleteApply:MyApply&lt;/font&gt;" style="rounded=0;whiteSpace=wrap;html=1;" parent="1" vertex="1">
          <mxGeometry x="1505" y="2467.5" width="220" height="60" as="geometry" />
        </mxCell>
        <mxCell id="quF1uSy7DQYUhARwBzJB-40" value="&lt;font style=&quot;font-size: 18px;&quot;&gt;3.1.1.1: ~MyApply()&lt;/font&gt;" style="text;html=1;align=center;verticalAlign=middle;resizable=0;points=[];autosize=1;strokeColor=none;fillColor=none;" parent="1" vertex="1">
          <mxGeometry x="1340" y="2422.5" width="180" height="40" as="geometry" />
        </mxCell>
        <mxCell id="quF1uSy7DQYUhARwBzJB-41" value="" style="endArrow=classic;html=1;rounded=0;" parent="1" edge="1">
          <mxGeometry width="50" height="50" relative="1" as="geometry">
            <mxPoint x="1360" y="2477.5" as="sourcePoint" />
            <mxPoint x="1490" y="2477.5" as="targetPoint" />
          </mxGeometry>
        </mxCell>
        <mxCell id="quF1uSy7DQYUhARwBzJB-42" value="" style="endArrow=none;html=1;rounded=0;entryX=0;entryY=0.5;entryDx=0;entryDy=0;exitX=1;exitY=0.5;exitDx=0;exitDy=0;" parent="1" source="quF1uSy7DQYUhARwBzJB-31" target="quF1uSy7DQYUhARwBzJB-39" edge="1">
          <mxGeometry width="50" height="50" relative="1" as="geometry">
            <mxPoint x="1340" y="2497.5" as="sourcePoint" />
            <mxPoint x="1540" y="2498" as="targetPoint" />
          </mxGeometry>
        </mxCell>
        <mxCell id="yYso_XX4nIZLWj4gBr1q-2" value="" style="group" parent="1" vertex="1" connectable="0">
          <mxGeometry x="810" y="2170" width="292" height="48" as="geometry" />
        </mxCell>
        <mxCell id="yYso_XX4nIZLWj4gBr1q-3" value="" style="endArrow=classic;html=1;rounded=0;" parent="yYso_XX4nIZLWj4gBr1q-2" edge="1">
          <mxGeometry width="50" height="50" relative="1" as="geometry">
            <mxPoint x="292" as="sourcePoint" />
            <mxPoint as="targetPoint" />
          </mxGeometry>
        </mxCell>
        <mxCell id="yYso_XX4nIZLWj4gBr1q-4" value="&lt;font style=&quot;font-size: 18px;&quot;&gt;1: startInterface()&lt;/font&gt;" style="text;html=1;align=center;verticalAlign=middle;resizable=0;points=[];autosize=1;strokeColor=none;fillColor=none;" parent="yYso_XX4nIZLWj4gBr1q-2" vertex="1">
          <mxGeometry x="71.81081081081082" y="8" width="160" height="40" as="geometry" />
        </mxCell>
        <mxCell id="yYso_XX4nIZLWj4gBr1q-5" value="" style="group" parent="1" vertex="1" connectable="0">
          <mxGeometry x="740" y="1490" width="250" height="46" as="geometry" />
        </mxCell>
        <mxCell id="yYso_XX4nIZLWj4gBr1q-6" value="" style="endArrow=classic;html=1;rounded=0;" parent="yYso_XX4nIZLWj4gBr1q-5" edge="1">
          <mxGeometry width="50" height="50" relative="1" as="geometry">
            <mxPoint x="250" as="sourcePoint" />
            <mxPoint as="targetPoint" />
          </mxGeometry>
        </mxCell>
        <mxCell id="yYso_XX4nIZLWj4gBr1q-7" value="&lt;font style=&quot;font-size: 18px;&quot;&gt;1: startInterface()&lt;/font&gt;" style="text;html=1;align=center;verticalAlign=middle;resizable=0;points=[];autosize=1;strokeColor=none;fillColor=none;" parent="yYso_XX4nIZLWj4gBr1q-5" vertex="1">
          <mxGeometry x="51.32432432432432" y="6" width="160" height="40" as="geometry" />
        </mxCell>
        <mxCell id="WO4MqIb6YECw_nZwngJ--2" value="" style="group" parent="1" vertex="1" connectable="0">
          <mxGeometry x="40" y="-1240" width="2090" height="720" as="geometry" />
        </mxCell>
        <mxCell id="quF1uSy7DQYUhARwBzJB-43" value="&lt;font style=&quot;font-size: 24px;&quot;&gt;sd 채용 정보 조회&lt;/font&gt;" style="shape=umlFrame;whiteSpace=wrap;html=1;pointerEvents=0;width=250;height=70;" parent="WO4MqIb6YECw_nZwngJ--2" vertex="1">
          <mxGeometry width="2090" height="720" as="geometry" />
        </mxCell>
        <mxCell id="quF1uSy7DQYUhARwBzJB-44" value="&lt;font style=&quot;font-size: 18px;&quot;&gt;:GeneralMember&lt;/font&gt;" style="shape=umlActor;verticalLabelPosition=bottom;verticalAlign=top;html=1;outlineConnect=0;" parent="WO4MqIb6YECw_nZwngJ--2" vertex="1">
          <mxGeometry x="30" y="140" width="110" height="220" as="geometry" />
        </mxCell>
        <mxCell id="quF1uSy7DQYUhARwBzJB-45" value="&lt;font style=&quot;font-size: 18px;&quot;&gt;:EmploymentInquiryAndApplyUI&lt;/font&gt;" style="rounded=0;whiteSpace=wrap;html=1;" parent="WO4MqIb6YECw_nZwngJ--2" vertex="1">
          <mxGeometry x="490" y="207.5" width="260" height="85" as="geometry" />
        </mxCell>
        <mxCell id="quF1uSy7DQYUhARwBzJB-46" value="&lt;font style=&quot;font-size: 18px;&quot;&gt;:EmploymentInquiryAndApply&lt;/font&gt;" style="rounded=0;whiteSpace=wrap;html=1;" parent="WO4MqIb6YECw_nZwngJ--2" vertex="1">
          <mxGeometry x="1080" y="207.5" width="310" height="85" as="geometry" />
        </mxCell>
        <mxCell id="quF1uSy7DQYUhARwBzJB-47" value="" style="endArrow=none;html=1;rounded=0;entryX=0;entryY=0.5;entryDx=0;entryDy=0;" parent="WO4MqIb6YECw_nZwngJ--2" source="quF1uSy7DQYUhARwBzJB-44" target="quF1uSy7DQYUhARwBzJB-45" edge="1">
          <mxGeometry width="50" height="50" relative="1" as="geometry">
            <mxPoint x="290" y="287.5" as="sourcePoint" />
            <mxPoint x="340" y="237.5" as="targetPoint" />
          </mxGeometry>
        </mxCell>
        <mxCell id="quF1uSy7DQYUhARwBzJB-48" value="" style="endArrow=none;html=1;rounded=0;entryX=0;entryY=0.5;entryDx=0;entryDy=0;exitX=1;exitY=0.5;exitDx=0;exitDy=0;" parent="WO4MqIb6YECw_nZwngJ--2" source="quF1uSy7DQYUhARwBzJB-45" target="quF1uSy7DQYUhARwBzJB-46" edge="1">
          <mxGeometry width="50" height="50" relative="1" as="geometry">
            <mxPoint x="860" y="270" as="sourcePoint" />
            <mxPoint x="910" y="220" as="targetPoint" />
          </mxGeometry>
        </mxCell>
        <mxCell id="quF1uSy7DQYUhARwBzJB-49" value="&lt;font style=&quot;font-size: 18px;&quot;&gt;:Company&lt;/font&gt;" style="rounded=0;whiteSpace=wrap;html=1;" parent="WO4MqIb6YECw_nZwngJ--2" vertex="1">
          <mxGeometry x="555" y="640" width="155" height="60" as="geometry" />
        </mxCell>
        <mxCell id="quF1uSy7DQYUhARwBzJB-50" value="&lt;font style=&quot;font-size: 18px;&quot;&gt;:Employment&lt;/font&gt;" style="rounded=0;whiteSpace=wrap;html=1;" parent="WO4MqIb6YECw_nZwngJ--2" vertex="1">
          <mxGeometry x="1350" y="640" width="220" height="60" as="geometry" />
        </mxCell>
        <mxCell id="quF1uSy7DQYUhARwBzJB-51" value="" style="endArrow=none;html=1;rounded=0;exitX=0.5;exitY=0;exitDx=0;exitDy=0;entryX=0.5;entryY=1;entryDx=0;entryDy=0;" parent="WO4MqIb6YECw_nZwngJ--2" source="quF1uSy7DQYUhARwBzJB-49" target="quF1uSy7DQYUhARwBzJB-46" edge="1">
          <mxGeometry width="50" height="50" relative="1" as="geometry">
            <mxPoint x="780" y="520" as="sourcePoint" />
            <mxPoint x="830" y="470" as="targetPoint" />
          </mxGeometry>
        </mxCell>
        <mxCell id="quF1uSy7DQYUhARwBzJB-52" value="" style="endArrow=none;html=1;rounded=0;exitX=0.5;exitY=0;exitDx=0;exitDy=0;entryX=0.5;entryY=1;entryDx=0;entryDy=0;" parent="WO4MqIb6YECw_nZwngJ--2" source="quF1uSy7DQYUhARwBzJB-50" target="quF1uSy7DQYUhARwBzJB-46" edge="1">
          <mxGeometry width="50" height="50" relative="1" as="geometry">
            <mxPoint x="1010" y="570" as="sourcePoint" />
            <mxPoint x="1130" y="300" as="targetPoint" />
          </mxGeometry>
        </mxCell>
        <mxCell id="quF1uSy7DQYUhARwBzJB-54" value="" style="endArrow=classic;html=1;rounded=0;" parent="WO4MqIb6YECw_nZwngJ--2" edge="1">
          <mxGeometry width="50" height="50" relative="1" as="geometry">
            <mxPoint x="1130" y="320" as="sourcePoint" />
            <mxPoint x="700" y="570" as="targetPoint" />
          </mxGeometry>
        </mxCell>
        <mxCell id="quF1uSy7DQYUhARwBzJB-55" value="" style="endArrow=classic;html=1;rounded=0;" parent="WO4MqIb6YECw_nZwngJ--2" edge="1">
          <mxGeometry width="50" height="50" relative="1" as="geometry">
            <mxPoint x="1270" y="310" as="sourcePoint" />
            <mxPoint x="1470" y="620" as="targetPoint" />
          </mxGeometry>
        </mxCell>
        <mxCell id="quF1uSy7DQYUhARwBzJB-56" value="" style="endArrow=classic;html=1;rounded=0;" parent="WO4MqIb6YECw_nZwngJ--2" edge="1">
          <mxGeometry width="50" height="50" relative="1" as="geometry">
            <mxPoint x="770" y="230" as="sourcePoint" />
            <mxPoint x="1060" y="230" as="targetPoint" />
          </mxGeometry>
        </mxCell>
        <mxCell id="quF1uSy7DQYUhARwBzJB-57" value="" style="endArrow=classic;html=1;rounded=0;" parent="WO4MqIb6YECw_nZwngJ--2" edge="1">
          <mxGeometry width="50" height="50" relative="1" as="geometry">
            <mxPoint x="180" y="230" as="sourcePoint" />
            <mxPoint x="430" y="230" as="targetPoint" />
          </mxGeometry>
        </mxCell>
        <mxCell id="quF1uSy7DQYUhARwBzJB-58" value="" style="endArrow=classic;html=1;rounded=0;" parent="WO4MqIb6YECw_nZwngJ--2" edge="1">
          <mxGeometry width="50" height="50" relative="1" as="geometry">
            <mxPoint x="1060" y="270" as="sourcePoint" />
            <mxPoint x="770" y="270" as="targetPoint" />
          </mxGeometry>
        </mxCell>
        <mxCell id="quF1uSy7DQYUhARwBzJB-59" value="&lt;font style=&quot;font-size: 18px;&quot;&gt;1: startInterface()&lt;/font&gt;" style="text;html=1;align=center;verticalAlign=middle;resizable=0;points=[];autosize=1;strokeColor=none;fillColor=none;" parent="WO4MqIb6YECw_nZwngJ--2" vertex="1">
          <mxGeometry x="843" y="280" width="160" height="40" as="geometry" />
        </mxCell>
        <mxCell id="quF1uSy7DQYUhARwBzJB-60" value="&lt;font style=&quot;font-size: 18px;&quot;&gt;2: searchbyCompany()&lt;/font&gt;" style="text;html=1;align=center;verticalAlign=middle;resizable=0;points=[];autosize=1;strokeColor=none;fillColor=none;" parent="WO4MqIb6YECw_nZwngJ--2" vertex="1">
          <mxGeometry x="207" y="110" width="210" height="40" as="geometry" />
        </mxCell>
        <mxCell id="quF1uSy7DQYUhARwBzJB-61" value="&lt;font style=&quot;font-size: 18px;&quot;&gt;2.1: showCompanyEmplyoments()&lt;/font&gt;" style="text;html=1;align=center;verticalAlign=middle;resizable=0;points=[];autosize=1;strokeColor=none;fillColor=none;" parent="WO4MqIb6YECw_nZwngJ--2" vertex="1">
          <mxGeometry x="800" y="110" width="300" height="40" as="geometry" />
        </mxCell>
        <mxCell id="quF1uSy7DQYUhARwBzJB-62" value="&lt;font style=&quot;font-size: 18px;&quot;&gt;2.1.1: listEmplyoments()&lt;/font&gt;" style="text;html=1;align=center;verticalAlign=middle;resizable=0;points=[];autosize=1;strokeColor=none;fillColor=none;" parent="WO4MqIb6YECw_nZwngJ--2" vertex="1">
          <mxGeometry x="606" y="430" width="220" height="40" as="geometry" />
        </mxCell>
        <mxCell id="quF1uSy7DQYUhARwBzJB-63" value="&lt;font style=&quot;font-size: 18px;&quot;&gt;2.1.2. *[For all company&#39;s employments not passed limit]: getEmploymentDetails()&lt;/font&gt;" style="text;html=1;align=center;verticalAlign=middle;resizable=0;points=[];autosize=1;strokeColor=none;fillColor=none;" parent="WO4MqIb6YECw_nZwngJ--2" vertex="1">
          <mxGeometry x="1327" y="350" width="680" height="40" as="geometry" />
        </mxCell>
        <mxCell id="quF1uSy7DQYUhARwBzJB-64" value="&lt;font style=&quot;font-size: 18px;&quot;&gt;3.1: showEmploymentDetails()&lt;/font&gt;" style="text;html=1;align=center;verticalAlign=middle;resizable=0;points=[];autosize=1;strokeColor=none;fillColor=none;" parent="WO4MqIb6YECw_nZwngJ--2" vertex="1">
          <mxGeometry x="800" y="150" width="270" height="40" as="geometry" />
        </mxCell>
        <mxCell id="quF1uSy7DQYUhARwBzJB-65" value="&lt;span style=&quot;color: rgb(0, 0, 0); font-family: Helvetica; font-size: 18px; font-style: normal; font-variant-ligatures: normal; font-variant-caps: normal; font-weight: 400; letter-spacing: normal; orphans: 2; text-align: center; text-indent: 0px; text-transform: none; widows: 2; word-spacing: 0px; -webkit-text-stroke-width: 0px; background-color: rgb(251, 251, 251); text-decoration-thickness: initial; text-decoration-style: initial; text-decoration-color: initial; float: none; display: inline !important;&quot;&gt;3.1.1: getDetailedInfo()&lt;/span&gt;" style="text;whiteSpace=wrap;html=1;" parent="WO4MqIb6YECw_nZwngJ--2" vertex="1">
          <mxGeometry x="1340" y="390" width="560" height="50" as="geometry" />
        </mxCell>
        <mxCell id="quF1uSy7DQYUhARwBzJB-66" value="&lt;font style=&quot;font-size: 18px;&quot;&gt;3: selectEmployment()&lt;/font&gt;" style="text;html=1;align=center;verticalAlign=middle;resizable=0;points=[];autosize=1;strokeColor=none;fillColor=none;" parent="WO4MqIb6YECw_nZwngJ--2" vertex="1">
          <mxGeometry x="210" y="150" width="200" height="40" as="geometry" />
        </mxCell>
        <mxCell id="WO4MqIb6YECw_nZwngJ--3" value="" style="group" parent="1" vertex="1" connectable="0">
          <mxGeometry x="40" y="-2020" width="2090" height="720" as="geometry" />
        </mxCell>
        <mxCell id="WO4MqIb6YECw_nZwngJ--4" value="&lt;font style=&quot;font-size: 24px;&quot;&gt;sd 채용 정보 조회 alternative course&lt;/font&gt;" style="shape=umlFrame;whiteSpace=wrap;html=1;pointerEvents=0;width=250;height=70;" parent="WO4MqIb6YECw_nZwngJ--3" vertex="1">
          <mxGeometry width="2090" height="720" as="geometry" />
        </mxCell>
        <mxCell id="WO4MqIb6YECw_nZwngJ--5" value="&lt;font style=&quot;font-size: 18px;&quot;&gt;:GeneralMember&lt;/font&gt;" style="shape=umlActor;verticalLabelPosition=bottom;verticalAlign=top;html=1;outlineConnect=0;" parent="WO4MqIb6YECw_nZwngJ--3" vertex="1">
          <mxGeometry x="30" y="140" width="110" height="220" as="geometry" />
        </mxCell>
        <mxCell id="WO4MqIb6YECw_nZwngJ--6" value="&lt;font style=&quot;font-size: 18px;&quot;&gt;:EmploymentInquiryAndApplyUI&lt;/font&gt;" style="rounded=0;whiteSpace=wrap;html=1;" parent="WO4MqIb6YECw_nZwngJ--3" vertex="1">
          <mxGeometry x="490" y="207.5" width="260" height="85" as="geometry" />
        </mxCell>
        <mxCell id="WO4MqIb6YECw_nZwngJ--7" value="&lt;font style=&quot;font-size: 18px;&quot;&gt;:EmploymentInquiryAndApply&lt;/font&gt;" style="rounded=0;whiteSpace=wrap;html=1;" parent="WO4MqIb6YECw_nZwngJ--3" vertex="1">
          <mxGeometry x="1080" y="207.5" width="310" height="85" as="geometry" />
        </mxCell>
        <mxCell id="WO4MqIb6YECw_nZwngJ--8" value="" style="endArrow=none;html=1;rounded=0;entryX=0;entryY=0.5;entryDx=0;entryDy=0;" parent="WO4MqIb6YECw_nZwngJ--3" source="WO4MqIb6YECw_nZwngJ--5" target="WO4MqIb6YECw_nZwngJ--6" edge="1">
          <mxGeometry width="50" height="50" relative="1" as="geometry">
            <mxPoint x="290" y="287.5" as="sourcePoint" />
            <mxPoint x="340" y="237.5" as="targetPoint" />
          </mxGeometry>
        </mxCell>
        <mxCell id="WO4MqIb6YECw_nZwngJ--9" value="" style="endArrow=none;html=1;rounded=0;entryX=0;entryY=0.5;entryDx=0;entryDy=0;exitX=1;exitY=0.5;exitDx=0;exitDy=0;" parent="WO4MqIb6YECw_nZwngJ--3" source="WO4MqIb6YECw_nZwngJ--6" target="WO4MqIb6YECw_nZwngJ--7" edge="1">
          <mxGeometry width="50" height="50" relative="1" as="geometry">
            <mxPoint x="860" y="270" as="sourcePoint" />
            <mxPoint x="910" y="220" as="targetPoint" />
          </mxGeometry>
        </mxCell>
        <mxCell id="WO4MqIb6YECw_nZwngJ--11" value="&lt;font style=&quot;font-size: 18px;&quot;&gt;:Employment&lt;/font&gt;" style="rounded=0;whiteSpace=wrap;html=1;" parent="WO4MqIb6YECw_nZwngJ--3" vertex="1">
          <mxGeometry x="1125" y="650" width="220" height="60" as="geometry" />
        </mxCell>
        <mxCell id="WO4MqIb6YECw_nZwngJ--13" value="" style="endArrow=none;html=1;rounded=0;exitX=0.5;exitY=0;exitDx=0;exitDy=0;entryX=0.5;entryY=1;entryDx=0;entryDy=0;" parent="WO4MqIb6YECw_nZwngJ--3" source="WO4MqIb6YECw_nZwngJ--11" target="WO4MqIb6YECw_nZwngJ--7" edge="1">
          <mxGeometry width="50" height="50" relative="1" as="geometry">
            <mxPoint x="1010" y="570" as="sourcePoint" />
            <mxPoint x="1130" y="300" as="targetPoint" />
          </mxGeometry>
        </mxCell>
        <mxCell id="WO4MqIb6YECw_nZwngJ--15" value="" style="endArrow=classic;html=1;rounded=0;" parent="WO4MqIb6YECw_nZwngJ--3" edge="1">
          <mxGeometry width="50" height="50" relative="1" as="geometry">
            <mxPoint x="1270" y="310" as="sourcePoint" />
            <mxPoint x="1270" y="630" as="targetPoint" />
          </mxGeometry>
        </mxCell>
        <mxCell id="WO4MqIb6YECw_nZwngJ--16" value="" style="endArrow=classic;html=1;rounded=0;" parent="WO4MqIb6YECw_nZwngJ--3" edge="1">
          <mxGeometry width="50" height="50" relative="1" as="geometry">
            <mxPoint x="770" y="230" as="sourcePoint" />
            <mxPoint x="1060" y="230" as="targetPoint" />
          </mxGeometry>
        </mxCell>
        <mxCell id="WO4MqIb6YECw_nZwngJ--17" value="" style="endArrow=classic;html=1;rounded=0;" parent="WO4MqIb6YECw_nZwngJ--3" edge="1">
          <mxGeometry width="50" height="50" relative="1" as="geometry">
            <mxPoint x="180" y="230" as="sourcePoint" />
            <mxPoint x="430" y="230" as="targetPoint" />
          </mxGeometry>
        </mxCell>
        <mxCell id="WO4MqIb6YECw_nZwngJ--18" value="" style="endArrow=classic;html=1;rounded=0;" parent="WO4MqIb6YECw_nZwngJ--3" edge="1">
          <mxGeometry width="50" height="50" relative="1" as="geometry">
            <mxPoint x="1060" y="270" as="sourcePoint" />
            <mxPoint x="770" y="270" as="targetPoint" />
          </mxGeometry>
        </mxCell>
        <mxCell id="WO4MqIb6YECw_nZwngJ--19" value="&lt;font style=&quot;font-size: 18px;&quot;&gt;1: startInterface()&lt;/font&gt;" style="text;html=1;align=center;verticalAlign=middle;resizable=0;points=[];autosize=1;strokeColor=none;fillColor=none;" parent="WO4MqIb6YECw_nZwngJ--3" vertex="1">
          <mxGeometry x="843" y="280" width="160" height="40" as="geometry" />
        </mxCell>
        <mxCell id="WO4MqIb6YECw_nZwngJ--20" value="&lt;font style=&quot;font-size: 18px;&quot;&gt;2: searchbyWork()&lt;/font&gt;" style="text;html=1;align=center;verticalAlign=middle;resizable=0;points=[];autosize=1;strokeColor=none;fillColor=none;" parent="WO4MqIb6YECw_nZwngJ--3" vertex="1">
          <mxGeometry x="227" y="110" width="170" height="40" as="geometry" />
        </mxCell>
        <mxCell id="WO4MqIb6YECw_nZwngJ--21" value="&lt;font style=&quot;font-size: 18px;&quot;&gt;2.1: showEmplyomentbyWork()&lt;/font&gt;" style="text;html=1;align=center;verticalAlign=middle;resizable=0;points=[];autosize=1;strokeColor=none;fillColor=none;" parent="WO4MqIb6YECw_nZwngJ--3" vertex="1">
          <mxGeometry x="803" y="110" width="270" height="40" as="geometry" />
        </mxCell>
        <mxCell id="WO4MqIb6YECw_nZwngJ--24" value="&lt;font style=&quot;font-size: 18px;&quot;&gt;3.1: showEmploymentDetails()&lt;/font&gt;" style="text;html=1;align=center;verticalAlign=middle;resizable=0;points=[];autosize=1;strokeColor=none;fillColor=none;" parent="WO4MqIb6YECw_nZwngJ--3" vertex="1">
          <mxGeometry x="800" y="150" width="270" height="40" as="geometry" />
        </mxCell>
        <mxCell id="WO4MqIb6YECw_nZwngJ--26" value="&lt;font style=&quot;font-size: 18px;&quot;&gt;3: selectEmployment()&lt;/font&gt;" style="text;html=1;align=center;verticalAlign=middle;resizable=0;points=[];autosize=1;strokeColor=none;fillColor=none;" parent="WO4MqIb6YECw_nZwngJ--3" vertex="1">
          <mxGeometry x="210" y="150" width="200" height="40" as="geometry" />
        </mxCell>
        <mxCell id="WO4MqIb6YECw_nZwngJ--27" value="" style="group" parent="WO4MqIb6YECw_nZwngJ--3" vertex="1" connectable="0">
          <mxGeometry x="1290" y="430" width="730" height="90" as="geometry" />
        </mxCell>
        <mxCell id="WO4MqIb6YECw_nZwngJ--23" value="&lt;font style=&quot;font-size: 18px;&quot;&gt;2.1.1. *[employments not passed limit &amp;amp;&amp;amp; employmentwork==input]: getEmploymentDetails()&lt;/font&gt;" style="text;html=1;align=center;verticalAlign=middle;resizable=0;points=[];autosize=1;strokeColor=none;fillColor=none;" parent="WO4MqIb6YECw_nZwngJ--27" vertex="1">
          <mxGeometry x="2" width="760" height="40" as="geometry" />
        </mxCell>
        <mxCell id="WO4MqIb6YECw_nZwngJ--25" value="&lt;span style=&quot;color: rgb(0, 0, 0); font-family: Helvetica; font-size: 18px; font-style: normal; font-variant-ligatures: normal; font-variant-caps: normal; font-weight: 400; letter-spacing: normal; orphans: 2; text-align: center; text-indent: 0px; text-transform: none; widows: 2; word-spacing: 0px; -webkit-text-stroke-width: 0px; background-color: rgb(251, 251, 251); text-decoration-thickness: initial; text-decoration-style: initial; text-decoration-color: initial; float: none; display: inline !important;&quot;&gt;3.1.1: getDetailedInfo()&lt;/span&gt;" style="text;whiteSpace=wrap;html=1;" parent="WO4MqIb6YECw_nZwngJ--27" vertex="1">
          <mxGeometry x="12" y="40" width="560" height="50" as="geometry" />
        </mxCell>
        <mxCell id="WO4MqIb6YECw_nZwngJ--64" value="" style="group" parent="1" vertex="1" connectable="0">
          <mxGeometry x="40" y="370" width="2090" height="780" as="geometry" />
        </mxCell>
        <mxCell id="LOlrtVlAbT6EiUQsh2Mm-1" value="&lt;font style=&quot;font-size: 18px;&quot;&gt;:GeneralMember&lt;/font&gt;" style="shape=umlActor;verticalLabelPosition=bottom;verticalAlign=top;html=1;outlineConnect=0;" parent="WO4MqIb6YECw_nZwngJ--64" vertex="1">
          <mxGeometry x="30" y="170" width="110" height="220" as="geometry" />
        </mxCell>
        <mxCell id="LOlrtVlAbT6EiUQsh2Mm-2" value="&lt;font style=&quot;font-size: 18px;&quot;&gt;:EmploymentInquiryAndApplyUI&lt;/font&gt;" style="rounded=0;whiteSpace=wrap;html=1;" parent="WO4MqIb6YECw_nZwngJ--64" vertex="1">
          <mxGeometry x="500" y="237.5" width="260" height="85" as="geometry" />
        </mxCell>
        <mxCell id="LOlrtVlAbT6EiUQsh2Mm-3" value="&lt;font style=&quot;font-size: 18px;&quot;&gt;:EmploymentInquiryAndApply&lt;/font&gt;" style="rounded=0;whiteSpace=wrap;html=1;" parent="WO4MqIb6YECw_nZwngJ--64" vertex="1">
          <mxGeometry x="1160" y="237.5" width="310" height="85" as="geometry" />
        </mxCell>
        <mxCell id="LOlrtVlAbT6EiUQsh2Mm-4" value="" style="endArrow=none;html=1;rounded=0;entryX=0;entryY=0.5;entryDx=0;entryDy=0;" parent="WO4MqIb6YECw_nZwngJ--64" source="LOlrtVlAbT6EiUQsh2Mm-1" target="LOlrtVlAbT6EiUQsh2Mm-2" edge="1">
          <mxGeometry width="50" height="50" relative="1" as="geometry">
            <mxPoint x="300" y="317.5" as="sourcePoint" />
            <mxPoint x="350" y="267.5" as="targetPoint" />
          </mxGeometry>
        </mxCell>
        <mxCell id="LOlrtVlAbT6EiUQsh2Mm-5" value="" style="endArrow=none;html=1;rounded=0;entryX=0;entryY=0.5;entryDx=0;entryDy=0;exitX=1;exitY=0.5;exitDx=0;exitDy=0;" parent="WO4MqIb6YECw_nZwngJ--64" source="LOlrtVlAbT6EiUQsh2Mm-2" target="LOlrtVlAbT6EiUQsh2Mm-3" edge="1">
          <mxGeometry width="50" height="50" relative="1" as="geometry">
            <mxPoint x="870" y="300" as="sourcePoint" />
            <mxPoint x="920" y="250" as="targetPoint" />
          </mxGeometry>
        </mxCell>
        <mxCell id="LOlrtVlAbT6EiUQsh2Mm-7" value="&lt;font style=&quot;font-size: 18px;&quot;&gt;:Employment&lt;/font&gt;" style="rounded=0;whiteSpace=wrap;html=1;" parent="WO4MqIb6YECw_nZwngJ--64" vertex="1">
          <mxGeometry x="1560" y="670" width="220" height="60" as="geometry" />
        </mxCell>
        <mxCell id="LOlrtVlAbT6EiUQsh2Mm-9" value="" style="endArrow=none;html=1;rounded=0;exitX=0.5;exitY=0;exitDx=0;exitDy=0;entryX=0.5;entryY=1;entryDx=0;entryDy=0;" parent="WO4MqIb6YECw_nZwngJ--64" source="LOlrtVlAbT6EiUQsh2Mm-7" target="LOlrtVlAbT6EiUQsh2Mm-3" edge="1">
          <mxGeometry width="50" height="50" relative="1" as="geometry">
            <mxPoint x="1020" y="600" as="sourcePoint" />
            <mxPoint x="1140" y="330" as="targetPoint" />
          </mxGeometry>
        </mxCell>
        <mxCell id="LOlrtVlAbT6EiUQsh2Mm-12" value="" style="endArrow=classic;html=1;rounded=0;" parent="WO4MqIb6YECw_nZwngJ--64" edge="1">
          <mxGeometry width="50" height="50" relative="1" as="geometry">
            <mxPoint x="1320" y="380" as="sourcePoint" />
            <mxPoint x="1590" y="640" as="targetPoint" />
          </mxGeometry>
        </mxCell>
        <mxCell id="LOlrtVlAbT6EiUQsh2Mm-13" value="" style="endArrow=classic;html=1;rounded=0;" parent="WO4MqIb6YECw_nZwngJ--64" edge="1">
          <mxGeometry width="50" height="50" relative="1" as="geometry">
            <mxPoint x="780" y="260" as="sourcePoint" />
            <mxPoint x="1150" y="260" as="targetPoint" />
          </mxGeometry>
        </mxCell>
        <mxCell id="LOlrtVlAbT6EiUQsh2Mm-14" value="" style="endArrow=classic;html=1;rounded=0;" parent="WO4MqIb6YECw_nZwngJ--64" edge="1">
          <mxGeometry width="50" height="50" relative="1" as="geometry">
            <mxPoint x="190" y="260" as="sourcePoint" />
            <mxPoint x="440" y="260" as="targetPoint" />
          </mxGeometry>
        </mxCell>
        <mxCell id="LOlrtVlAbT6EiUQsh2Mm-17" value="&lt;font style=&quot;font-size: 18px;&quot;&gt;2: searchbyWork()&lt;/font&gt;" style="text;html=1;align=center;verticalAlign=middle;resizable=0;points=[];autosize=1;strokeColor=none;fillColor=none;" parent="WO4MqIb6YECw_nZwngJ--64" vertex="1">
          <mxGeometry x="222" y="90" width="170" height="40" as="geometry" />
        </mxCell>
        <mxCell id="LOlrtVlAbT6EiUQsh2Mm-18" value="&lt;font style=&quot;font-size: 18px;&quot;&gt;2.1: showEmplyomentbyWork()&lt;/font&gt;" style="text;html=1;align=center;verticalAlign=middle;resizable=0;points=[];autosize=1;strokeColor=none;fillColor=none;" parent="WO4MqIb6YECw_nZwngJ--64" vertex="1">
          <mxGeometry x="813" y="90" width="270" height="40" as="geometry" />
        </mxCell>
        <mxCell id="LOlrtVlAbT6EiUQsh2Mm-21" value="&lt;font style=&quot;font-size: 18px;&quot;&gt;3.1: showEmploymentDetails()&lt;/font&gt;" style="text;html=1;align=center;verticalAlign=middle;resizable=0;points=[];autosize=1;strokeColor=none;fillColor=none;" parent="WO4MqIb6YECw_nZwngJ--64" vertex="1">
          <mxGeometry x="810" y="130" width="270" height="40" as="geometry" />
        </mxCell>
        <mxCell id="LOlrtVlAbT6EiUQsh2Mm-22" value="&lt;span style=&quot;color: rgb(0, 0, 0); font-family: Helvetica; font-size: 18px; font-style: normal; font-variant-ligatures: normal; font-variant-caps: normal; font-weight: 400; letter-spacing: normal; orphans: 2; text-align: center; text-indent: 0px; text-transform: none; widows: 2; word-spacing: 0px; -webkit-text-stroke-width: 0px; background-color: rgb(251, 251, 251); text-decoration-thickness: initial; text-decoration-style: initial; text-decoration-color: initial; float: none; display: inline !important;&quot;&gt;3.1.1: getDetailedInfo()&lt;/span&gt;" style="text;whiteSpace=wrap;html=1;" parent="WO4MqIb6YECw_nZwngJ--64" vertex="1">
          <mxGeometry x="1350" y="640" width="560" height="50" as="geometry" />
        </mxCell>
        <mxCell id="LOlrtVlAbT6EiUQsh2Mm-23" value="&lt;font style=&quot;font-size: 18px;&quot;&gt;3: selectEmployment()&lt;/font&gt;" style="text;html=1;align=center;verticalAlign=middle;resizable=0;points=[];autosize=1;strokeColor=none;fillColor=none;" parent="WO4MqIb6YECw_nZwngJ--64" vertex="1">
          <mxGeometry x="222" y="130" width="200" height="40" as="geometry" />
        </mxCell>
        <mxCell id="LOlrtVlAbT6EiUQsh2Mm-24" value="&lt;font style=&quot;font-size: 18px;&quot;&gt;:MyApply&lt;/font&gt;" style="rounded=0;whiteSpace=wrap;html=1;" parent="WO4MqIb6YECw_nZwngJ--64" vertex="1">
          <mxGeometry x="1760" y="250" width="220" height="60" as="geometry" />
        </mxCell>
        <mxCell id="LOlrtVlAbT6EiUQsh2Mm-25" value="&lt;font style=&quot;font-size: 18px;&quot;&gt;4: applyEmplyoment()&lt;/font&gt;" style="text;html=1;align=center;verticalAlign=middle;resizable=0;points=[];autosize=1;strokeColor=none;fillColor=none;" parent="WO4MqIb6YECw_nZwngJ--64" vertex="1">
          <mxGeometry x="220" y="170" width="200" height="40" as="geometry" />
        </mxCell>
        <mxCell id="LOlrtVlAbT6EiUQsh2Mm-26" value="&lt;font style=&quot;font-size: 18px;&quot;&gt;4.1: addNewMyApply()&lt;/font&gt;" style="text;html=1;align=center;verticalAlign=middle;resizable=0;points=[];autosize=1;strokeColor=none;fillColor=none;" parent="WO4MqIb6YECw_nZwngJ--64" vertex="1">
          <mxGeometry x="808" y="170" width="210" height="40" as="geometry" />
        </mxCell>
        <mxCell id="LOlrtVlAbT6EiUQsh2Mm-27" value="&lt;font style=&quot;font-size: 18px;&quot;&gt;4.1.1: addNewMyApply()&lt;/font&gt;" style="text;html=1;align=center;verticalAlign=middle;resizable=0;points=[];autosize=1;strokeColor=none;fillColor=none;" parent="WO4MqIb6YECw_nZwngJ--64" vertex="1">
          <mxGeometry x="1500" y="210" width="220" height="40" as="geometry" />
        </mxCell>
        <mxCell id="55tQBfatClFE9SiBVYWM-2" value="&lt;font style=&quot;font-size: 18px;&quot;&gt;newApply:MyApply&lt;/font&gt;" style="rounded=0;whiteSpace=wrap;html=1;" parent="WO4MqIb6YECw_nZwngJ--64" vertex="1">
          <mxGeometry x="1760" y="90" width="220" height="60" as="geometry" />
        </mxCell>
        <mxCell id="55tQBfatClFE9SiBVYWM-4" value="&lt;font style=&quot;font-size: 18px;&quot;&gt;4.1.1.2: MyApply()&lt;/font&gt;" style="text;html=1;align=center;verticalAlign=middle;resizable=0;points=[];autosize=1;strokeColor=none;fillColor=none;" parent="WO4MqIb6YECw_nZwngJ--64" vertex="1">
          <mxGeometry x="1700" y="170" width="170" height="40" as="geometry" />
        </mxCell>
        <mxCell id="55tQBfatClFE9SiBVYWM-8" value="" style="endArrow=none;html=1;rounded=0;entryX=0;entryY=0.5;entryDx=0;entryDy=0;exitX=1;exitY=0.5;exitDx=0;exitDy=0;" parent="WO4MqIb6YECw_nZwngJ--64" source="LOlrtVlAbT6EiUQsh2Mm-3" target="LOlrtVlAbT6EiUQsh2Mm-24" edge="1">
          <mxGeometry width="50" height="50" relative="1" as="geometry">
            <mxPoint x="1500" y="320" as="sourcePoint" />
            <mxPoint x="1550" y="270" as="targetPoint" />
          </mxGeometry>
        </mxCell>
        <mxCell id="55tQBfatClFE9SiBVYWM-14" value="&lt;font style=&quot;font-size: 24px;&quot;&gt;sd 회사 지원&amp;nbsp;&lt;br&gt;alternative course&lt;br&gt;&lt;/font&gt;" style="shape=umlFrame;whiteSpace=wrap;html=1;pointerEvents=0;width=200;height=70;" parent="WO4MqIb6YECw_nZwngJ--64" vertex="1">
          <mxGeometry width="2090" height="780" as="geometry" />
        </mxCell>
        <mxCell id="T62NoO1S3RFAVfisKDKc-13" value="" style="endArrow=classic;html=1;rounded=0;" parent="WO4MqIb6YECw_nZwngJ--64" edge="1">
          <mxGeometry width="50" height="50" relative="1" as="geometry">
            <mxPoint x="1480" y="265" as="sourcePoint" />
            <mxPoint x="1750" y="265" as="targetPoint" />
          </mxGeometry>
        </mxCell>
        <mxCell id="T62NoO1S3RFAVfisKDKc-14" value="" style="endArrow=classic;html=1;rounded=0;" parent="WO4MqIb6YECw_nZwngJ--64" edge="1">
          <mxGeometry width="50" height="50" relative="1" as="geometry">
            <mxPoint x="1870" y="240" as="sourcePoint" />
            <mxPoint x="1870" y="160" as="targetPoint" />
          </mxGeometry>
        </mxCell>
        <mxCell id="BHU60EvXns1avt8QtMfU-1" value="" style="endArrow=none;html=1;rounded=0;entryX=0.5;entryY=1;entryDx=0;entryDy=0;exitX=0.5;exitY=0;exitDx=0;exitDy=0;" parent="WO4MqIb6YECw_nZwngJ--64" source="LOlrtVlAbT6EiUQsh2Mm-7" target="LOlrtVlAbT6EiUQsh2Mm-24" edge="1">
          <mxGeometry width="50" height="50" relative="1" as="geometry">
            <mxPoint x="1710" y="500" as="sourcePoint" />
            <mxPoint x="1760" y="450" as="targetPoint" />
          </mxGeometry>
        </mxCell>
        <mxCell id="BHU60EvXns1avt8QtMfU-2" value="" style="endArrow=classic;html=1;rounded=0;" parent="WO4MqIb6YECw_nZwngJ--64" edge="1">
          <mxGeometry width="50" height="50" relative="1" as="geometry">
            <mxPoint x="1890" y="340" as="sourcePoint" />
            <mxPoint x="1710" y="660" as="targetPoint" />
          </mxGeometry>
        </mxCell>
        <mxCell id="BHU60EvXns1avt8QtMfU-3" value="&lt;font style=&quot;font-size: 18px;&quot;&gt;4.1.1.1: getDetailedInfo()&lt;/font&gt;" style="text;html=1;align=center;verticalAlign=middle;resizable=0;points=[];autosize=1;strokeColor=none;fillColor=none;" parent="WO4MqIb6YECw_nZwngJ--64" vertex="1">
          <mxGeometry x="1785" y="510" width="220" height="40" as="geometry" />
        </mxCell>
        <mxCell id="yYso_XX4nIZLWj4gBr1q-1" value="" style="group" parent="WO4MqIb6YECw_nZwngJ--64" vertex="1" connectable="0">
          <mxGeometry x="780" y="300" width="370" height="50" as="geometry" />
        </mxCell>
        <mxCell id="LOlrtVlAbT6EiUQsh2Mm-15" value="" style="endArrow=classic;html=1;rounded=0;" parent="yYso_XX4nIZLWj4gBr1q-1" edge="1">
          <mxGeometry width="50" height="50" relative="1" as="geometry">
            <mxPoint x="370" as="sourcePoint" />
            <mxPoint as="targetPoint" />
          </mxGeometry>
        </mxCell>
        <mxCell id="LOlrtVlAbT6EiUQsh2Mm-16" value="&lt;font style=&quot;font-size: 18px;&quot;&gt;1: startInterface()&lt;/font&gt;" style="text;html=1;align=center;verticalAlign=middle;resizable=0;points=[];autosize=1;strokeColor=none;fillColor=none;" parent="yYso_XX4nIZLWj4gBr1q-1" vertex="1">
          <mxGeometry x="110" y="10" width="160" height="40" as="geometry" />
        </mxCell>
        <mxCell id="WO4MqIb6YECw_nZwngJ--98" value="&lt;font style=&quot;font-size: 18px;&quot;&gt;2.1.1. *[emplyoments not passed limit &amp;amp;&amp;amp; employmentwork==input]: getEmploymentDetails()&lt;/font&gt;" style="text;html=1;align=center;verticalAlign=middle;resizable=0;points=[];autosize=1;strokeColor=none;fillColor=none;" parent="WO4MqIb6YECw_nZwngJ--64" vertex="1">
          <mxGeometry x="787" y="600" width="760" height="40" as="geometry" />
        </mxCell>
        <mxCell id="WO4MqIb6YECw_nZwngJ--65" value="" style="group" parent="1" vertex="1" connectable="0">
          <mxGeometry x="40" y="-480" width="2090" height="780" as="geometry" />
        </mxCell>
        <mxCell id="WO4MqIb6YECw_nZwngJ--66" value="&lt;font style=&quot;font-size: 18px;&quot;&gt;:GeneralMember&lt;/font&gt;" style="shape=umlActor;verticalLabelPosition=bottom;verticalAlign=top;html=1;outlineConnect=0;" parent="WO4MqIb6YECw_nZwngJ--65" vertex="1">
          <mxGeometry x="30" y="170" width="110" height="220" as="geometry" />
        </mxCell>
        <mxCell id="WO4MqIb6YECw_nZwngJ--67" value="&lt;font style=&quot;font-size: 18px;&quot;&gt;:EmploymentInquiryAndApplyUI&lt;/font&gt;" style="rounded=0;whiteSpace=wrap;html=1;" parent="WO4MqIb6YECw_nZwngJ--65" vertex="1">
          <mxGeometry x="500" y="237.5" width="260" height="85" as="geometry" />
        </mxCell>
        <mxCell id="WO4MqIb6YECw_nZwngJ--68" value="&lt;font style=&quot;font-size: 18px;&quot;&gt;:EmploymentInquiryAndApply&lt;/font&gt;" style="rounded=0;whiteSpace=wrap;html=1;" parent="WO4MqIb6YECw_nZwngJ--65" vertex="1">
          <mxGeometry x="1160" y="237.5" width="310" height="85" as="geometry" />
        </mxCell>
        <mxCell id="WO4MqIb6YECw_nZwngJ--69" value="" style="endArrow=none;html=1;rounded=0;entryX=0;entryY=0.5;entryDx=0;entryDy=0;" parent="WO4MqIb6YECw_nZwngJ--65" source="WO4MqIb6YECw_nZwngJ--66" target="WO4MqIb6YECw_nZwngJ--67" edge="1">
          <mxGeometry width="50" height="50" relative="1" as="geometry">
            <mxPoint x="300" y="317.5" as="sourcePoint" />
            <mxPoint x="350" y="267.5" as="targetPoint" />
          </mxGeometry>
        </mxCell>
        <mxCell id="WO4MqIb6YECw_nZwngJ--70" value="" style="endArrow=none;html=1;rounded=0;entryX=0;entryY=0.5;entryDx=0;entryDy=0;exitX=1;exitY=0.5;exitDx=0;exitDy=0;" parent="WO4MqIb6YECw_nZwngJ--65" source="WO4MqIb6YECw_nZwngJ--67" target="WO4MqIb6YECw_nZwngJ--68" edge="1">
          <mxGeometry width="50" height="50" relative="1" as="geometry">
            <mxPoint x="870" y="300" as="sourcePoint" />
            <mxPoint x="920" y="250" as="targetPoint" />
          </mxGeometry>
        </mxCell>
        <mxCell id="WO4MqIb6YECw_nZwngJ--72" value="&lt;font style=&quot;font-size: 18px;&quot;&gt;:Employment&lt;/font&gt;" style="rounded=0;whiteSpace=wrap;html=1;" parent="WO4MqIb6YECw_nZwngJ--65" vertex="1">
          <mxGeometry x="1560" y="670" width="220" height="60" as="geometry" />
        </mxCell>
        <mxCell id="WO4MqIb6YECw_nZwngJ--74" value="" style="endArrow=none;html=1;rounded=0;exitX=0.5;exitY=0;exitDx=0;exitDy=0;entryX=0.5;entryY=1;entryDx=0;entryDy=0;" parent="WO4MqIb6YECw_nZwngJ--65" source="WO4MqIb6YECw_nZwngJ--72" target="WO4MqIb6YECw_nZwngJ--68" edge="1">
          <mxGeometry width="50" height="50" relative="1" as="geometry">
            <mxPoint x="1020" y="600" as="sourcePoint" />
            <mxPoint x="1140" y="330" as="targetPoint" />
          </mxGeometry>
        </mxCell>
        <mxCell id="WO4MqIb6YECw_nZwngJ--76" value="" style="endArrow=classic;html=1;rounded=0;" parent="WO4MqIb6YECw_nZwngJ--65" edge="1">
          <mxGeometry width="50" height="50" relative="1" as="geometry">
            <mxPoint x="1320" y="380" as="sourcePoint" />
            <mxPoint x="1590" y="650" as="targetPoint" />
          </mxGeometry>
        </mxCell>
        <mxCell id="WO4MqIb6YECw_nZwngJ--77" value="" style="endArrow=classic;html=1;rounded=0;" parent="WO4MqIb6YECw_nZwngJ--65" edge="1">
          <mxGeometry width="50" height="50" relative="1" as="geometry">
            <mxPoint x="780" y="260" as="sourcePoint" />
            <mxPoint x="1150" y="260" as="targetPoint" />
          </mxGeometry>
        </mxCell>
        <mxCell id="WO4MqIb6YECw_nZwngJ--78" value="" style="endArrow=classic;html=1;rounded=0;" parent="WO4MqIb6YECw_nZwngJ--65" edge="1">
          <mxGeometry width="50" height="50" relative="1" as="geometry">
            <mxPoint x="190" y="260" as="sourcePoint" />
            <mxPoint x="440" y="260" as="targetPoint" />
          </mxGeometry>
        </mxCell>
        <mxCell id="WO4MqIb6YECw_nZwngJ--79" value="&lt;font style=&quot;font-size: 18px;&quot;&gt;2: searchbyCompany()&lt;/font&gt;" style="text;html=1;align=center;verticalAlign=middle;resizable=0;points=[];autosize=1;strokeColor=none;fillColor=none;" parent="WO4MqIb6YECw_nZwngJ--65" vertex="1">
          <mxGeometry x="219" y="89" width="210" height="40" as="geometry" />
        </mxCell>
        <mxCell id="WO4MqIb6YECw_nZwngJ--80" value="&lt;font style=&quot;font-size: 18px;&quot;&gt;2.1: showCompanyEmplyoments()&lt;/font&gt;" style="text;html=1;align=center;verticalAlign=middle;resizable=0;points=[];autosize=1;strokeColor=none;fillColor=none;" parent="WO4MqIb6YECw_nZwngJ--65" vertex="1">
          <mxGeometry x="810" y="90" width="300" height="40" as="geometry" />
        </mxCell>
        <mxCell id="WO4MqIb6YECw_nZwngJ--82" value="&lt;font style=&quot;font-size: 18px;&quot;&gt;3.1: showEmploymentDetails()&lt;/font&gt;" style="text;html=1;align=center;verticalAlign=middle;resizable=0;points=[];autosize=1;strokeColor=none;fillColor=none;" parent="WO4MqIb6YECw_nZwngJ--65" vertex="1">
          <mxGeometry x="810" y="130" width="270" height="40" as="geometry" />
        </mxCell>
        <mxCell id="WO4MqIb6YECw_nZwngJ--83" value="&lt;span style=&quot;color: rgb(0, 0, 0); font-family: Helvetica; font-size: 18px; font-style: normal; font-variant-ligatures: normal; font-variant-caps: normal; font-weight: 400; letter-spacing: normal; orphans: 2; text-align: center; text-indent: 0px; text-transform: none; widows: 2; word-spacing: 0px; -webkit-text-stroke-width: 0px; background-color: rgb(251, 251, 251); text-decoration-thickness: initial; text-decoration-style: initial; text-decoration-color: initial; float: none; display: inline !important;&quot;&gt;3.1.1: getDetailedInfo()&lt;/span&gt;" style="text;whiteSpace=wrap;html=1;" parent="WO4MqIb6YECw_nZwngJ--65" vertex="1">
          <mxGeometry x="1320" y="630" width="560" height="50" as="geometry" />
        </mxCell>
        <mxCell id="WO4MqIb6YECw_nZwngJ--84" value="&lt;font style=&quot;font-size: 18px;&quot;&gt;3: selectEmployment()&lt;/font&gt;" style="text;html=1;align=center;verticalAlign=middle;resizable=0;points=[];autosize=1;strokeColor=none;fillColor=none;" parent="WO4MqIb6YECw_nZwngJ--65" vertex="1">
          <mxGeometry x="222" y="130" width="200" height="40" as="geometry" />
        </mxCell>
        <mxCell id="WO4MqIb6YECw_nZwngJ--85" value="&lt;font style=&quot;font-size: 18px;&quot;&gt;:MyApply&lt;/font&gt;" style="rounded=0;whiteSpace=wrap;html=1;" parent="WO4MqIb6YECw_nZwngJ--65" vertex="1">
          <mxGeometry x="1760" y="250" width="220" height="60" as="geometry" />
        </mxCell>
        <mxCell id="WO4MqIb6YECw_nZwngJ--86" value="&lt;font style=&quot;font-size: 18px;&quot;&gt;4: applyEmplyoment()&lt;/font&gt;" style="text;html=1;align=center;verticalAlign=middle;resizable=0;points=[];autosize=1;strokeColor=none;fillColor=none;" parent="WO4MqIb6YECw_nZwngJ--65" vertex="1">
          <mxGeometry x="220" y="170" width="200" height="40" as="geometry" />
        </mxCell>
        <mxCell id="WO4MqIb6YECw_nZwngJ--87" value="&lt;font style=&quot;font-size: 18px;&quot;&gt;4.1: addNewMyApply()&lt;/font&gt;" style="text;html=1;align=center;verticalAlign=middle;resizable=0;points=[];autosize=1;strokeColor=none;fillColor=none;" parent="WO4MqIb6YECw_nZwngJ--65" vertex="1">
          <mxGeometry x="808" y="170" width="210" height="40" as="geometry" />
        </mxCell>
        <mxCell id="WO4MqIb6YECw_nZwngJ--88" value="&lt;font style=&quot;font-size: 18px;&quot;&gt;4.1.1: addNewMyApply()&lt;/font&gt;" style="text;html=1;align=center;verticalAlign=middle;resizable=0;points=[];autosize=1;strokeColor=none;fillColor=none;" parent="WO4MqIb6YECw_nZwngJ--65" vertex="1">
          <mxGeometry x="1500" y="210" width="220" height="40" as="geometry" />
        </mxCell>
        <mxCell id="WO4MqIb6YECw_nZwngJ--89" value="&lt;font style=&quot;font-size: 18px;&quot;&gt;newApply:MyApply&lt;/font&gt;" style="rounded=0;whiteSpace=wrap;html=1;" parent="WO4MqIb6YECw_nZwngJ--65" vertex="1">
          <mxGeometry x="1760" y="90" width="220" height="60" as="geometry" />
        </mxCell>
        <mxCell id="WO4MqIb6YECw_nZwngJ--90" value="&lt;font style=&quot;font-size: 18px;&quot;&gt;4.1.1.2: MyApply()&lt;/font&gt;" style="text;html=1;align=center;verticalAlign=middle;resizable=0;points=[];autosize=1;strokeColor=none;fillColor=none;" parent="WO4MqIb6YECw_nZwngJ--65" vertex="1">
          <mxGeometry x="1700" y="170" width="170" height="40" as="geometry" />
        </mxCell>
        <mxCell id="WO4MqIb6YECw_nZwngJ--91" value="" style="endArrow=none;html=1;rounded=0;entryX=0;entryY=0.5;entryDx=0;entryDy=0;exitX=1;exitY=0.5;exitDx=0;exitDy=0;" parent="WO4MqIb6YECw_nZwngJ--65" source="WO4MqIb6YECw_nZwngJ--68" target="WO4MqIb6YECw_nZwngJ--85" edge="1">
          <mxGeometry width="50" height="50" relative="1" as="geometry">
            <mxPoint x="1500" y="320" as="sourcePoint" />
            <mxPoint x="1550" y="270" as="targetPoint" />
          </mxGeometry>
        </mxCell>
        <mxCell id="WO4MqIb6YECw_nZwngJ--92" value="&lt;font style=&quot;font-size: 24px;&quot;&gt;sd 회사 지원&lt;/font&gt;" style="shape=umlFrame;whiteSpace=wrap;html=1;pointerEvents=0;width=200;height=70;" parent="WO4MqIb6YECw_nZwngJ--65" vertex="1">
          <mxGeometry width="2090" height="780" as="geometry" />
        </mxCell>
        <mxCell id="WO4MqIb6YECw_nZwngJ--93" value="" style="endArrow=classic;html=1;rounded=0;" parent="WO4MqIb6YECw_nZwngJ--65" edge="1">
          <mxGeometry width="50" height="50" relative="1" as="geometry">
            <mxPoint x="1480" y="265" as="sourcePoint" />
            <mxPoint x="1750" y="265" as="targetPoint" />
          </mxGeometry>
        </mxCell>
        <mxCell id="WO4MqIb6YECw_nZwngJ--94" value="" style="endArrow=classic;html=1;rounded=0;" parent="WO4MqIb6YECw_nZwngJ--65" edge="1">
          <mxGeometry width="50" height="50" relative="1" as="geometry">
            <mxPoint x="1870" y="240" as="sourcePoint" />
            <mxPoint x="1870" y="160" as="targetPoint" />
          </mxGeometry>
        </mxCell>
        <mxCell id="WO4MqIb6YECw_nZwngJ--95" value="" style="endArrow=none;html=1;rounded=0;entryX=0.5;entryY=1;entryDx=0;entryDy=0;exitX=0.5;exitY=0;exitDx=0;exitDy=0;" parent="WO4MqIb6YECw_nZwngJ--65" source="WO4MqIb6YECw_nZwngJ--72" target="WO4MqIb6YECw_nZwngJ--85" edge="1">
          <mxGeometry width="50" height="50" relative="1" as="geometry">
            <mxPoint x="1710" y="500" as="sourcePoint" />
            <mxPoint x="1760" y="450" as="targetPoint" />
          </mxGeometry>
        </mxCell>
        <mxCell id="WO4MqIb6YECw_nZwngJ--96" value="" style="endArrow=classic;html=1;rounded=0;" parent="WO4MqIb6YECw_nZwngJ--65" edge="1">
          <mxGeometry width="50" height="50" relative="1" as="geometry">
            <mxPoint x="1890" y="340" as="sourcePoint" />
            <mxPoint x="1710" y="660" as="targetPoint" />
          </mxGeometry>
        </mxCell>
        <mxCell id="WO4MqIb6YECw_nZwngJ--97" value="&lt;font style=&quot;font-size: 18px;&quot;&gt;4.1.1.1: getDetailedInfo()&lt;/font&gt;" style="text;html=1;align=center;verticalAlign=middle;resizable=0;points=[];autosize=1;strokeColor=none;fillColor=none;" parent="WO4MqIb6YECw_nZwngJ--65" vertex="1">
          <mxGeometry x="1785" y="510" width="220" height="40" as="geometry" />
        </mxCell>
        <mxCell id="WO4MqIb6YECw_nZwngJ--99" value="" style="group" parent="WO4MqIb6YECw_nZwngJ--65" vertex="1" connectable="0">
          <mxGeometry x="780" y="300" width="370" height="50" as="geometry" />
        </mxCell>
        <mxCell id="WO4MqIb6YECw_nZwngJ--100" value="" style="endArrow=classic;html=1;rounded=0;" parent="WO4MqIb6YECw_nZwngJ--99" edge="1">
          <mxGeometry width="50" height="50" relative="1" as="geometry">
            <mxPoint x="370" as="sourcePoint" />
            <mxPoint as="targetPoint" />
          </mxGeometry>
        </mxCell>
        <mxCell id="WO4MqIb6YECw_nZwngJ--101" value="&lt;font style=&quot;font-size: 18px;&quot;&gt;1: startInterface()&lt;/font&gt;" style="text;html=1;align=center;verticalAlign=middle;resizable=0;points=[];autosize=1;strokeColor=none;fillColor=none;" parent="WO4MqIb6YECw_nZwngJ--99" vertex="1">
          <mxGeometry x="110" y="10" width="160" height="40" as="geometry" />
        </mxCell>
        <mxCell id="WO4MqIb6YECw_nZwngJ--102" value="" style="endArrow=none;html=1;rounded=0;exitX=0.5;exitY=0;exitDx=0;exitDy=0;entryX=0.5;entryY=1;entryDx=0;entryDy=0;" parent="WO4MqIb6YECw_nZwngJ--65" edge="1">
          <mxGeometry width="50" height="50" relative="1" as="geometry">
            <mxPoint x="648" y="670" as="sourcePoint" />
            <mxPoint x="1320" y="323" as="targetPoint" />
          </mxGeometry>
        </mxCell>
        <mxCell id="WO4MqIb6YECw_nZwngJ--103" value="&lt;font style=&quot;font-size: 18px;&quot;&gt;:Company&lt;/font&gt;" style="rounded=0;whiteSpace=wrap;html=1;" parent="WO4MqIb6YECw_nZwngJ--65" vertex="1">
          <mxGeometry x="575" y="670" width="155" height="60" as="geometry" />
        </mxCell>
        <mxCell id="WO4MqIb6YECw_nZwngJ--104" value="&lt;font style=&quot;font-size: 18px;&quot;&gt;2.1.1: listEmplyoments()&lt;/font&gt;" style="text;html=1;align=center;verticalAlign=middle;resizable=0;points=[];autosize=1;strokeColor=none;fillColor=none;" parent="WO4MqIb6YECw_nZwngJ--65" vertex="1">
          <mxGeometry x="650" y="470" width="220" height="40" as="geometry" />
        </mxCell>
        <mxCell id="WO4MqIb6YECw_nZwngJ--105" value="" style="endArrow=classic;html=1;rounded=0;" parent="WO4MqIb6YECw_nZwngJ--65" edge="1">
          <mxGeometry width="50" height="50" relative="1" as="geometry">
            <mxPoint x="1150" y="370" as="sourcePoint" />
            <mxPoint x="700" y="610" as="targetPoint" />
          </mxGeometry>
        </mxCell>
        <mxCell id="BHU60EvXns1avt8QtMfU-4" value="&lt;font style=&quot;font-size: 18px;&quot;&gt;2.1.2. *[For all company&#39;s employments not passed limit]: getEmploymentDetails()&lt;/font&gt;" style="text;html=1;align=center;verticalAlign=middle;resizable=0;points=[];autosize=1;strokeColor=none;fillColor=none;" parent="WO4MqIb6YECw_nZwngJ--65" vertex="1">
          <mxGeometry x="840" y="590" width="680" height="40" as="geometry" />
        </mxCell>
      </root>
    </mxGraphModel>
  </diagram>
</mxfile>
